<?xml version="1.0" encoding="UTF-8" standalone="no"?>
<!-- Created with Inkscape (http://www.inkscape.org/) -->

<svg
   xmlns:dc="http://purl.org/dc/elements/1.1/"
   xmlns:cc="http://creativecommons.org/ns#"
   xmlns:rdf="http://www.w3.org/1999/02/22-rdf-syntax-ns#"
   xmlns:svg="http://www.w3.org/2000/svg"
   xmlns="http://www.w3.org/2000/svg"
   xmlns:sodipodi="http://sodipodi.sourceforge.net/DTD/sodipodi-0.dtd"
   xmlns:inkscape="http://www.inkscape.org/namespaces/inkscape"
   id="svg3004"
   version="1.1"
   inkscape:version="0.48.4 r9939"
   width="1261.705"
   height="884.27087"
   xml:space="preserve"
   sodipodi:docname="AnalogNeuron.pdf"><metadata
     id="metadata3010"><rdf:RDF><cc:Work
         rdf:about=""><dc:format>image/svg+xml</dc:format><dc:type
           rdf:resource="http://purl.org/dc/dcmitype/StillImage" /><dc:title></dc:title></cc:Work></rdf:RDF></metadata><defs
     id="defs3008"><clipPath
       clipPathUnits="userSpaceOnUse"
       id="clipPath3020"><path
         d="m 0.03125,707.3551 1008.99975,0 0,-707.000913 -1008.99975,0 0,707.000913 z"
         id="path3022" /></clipPath><clipPath
       clipPathUnits="userSpaceOnUse"
       id="clipPath3026"><path
         d="m 0.03125,0.354187 1008.96895,0 0,706.645803 -1008.96895,0 0,-706.645803 z"
         id="path3028" /></clipPath><clipPath
       clipPathUnits="userSpaceOnUse"
       id="clipPath3038"><path
         d="m 0.03125,0.354187 1008.96895,0 0,706.645803 -1008.96895,0 0,-706.645803 z"
         id="path3040" /></clipPath><clipPath
       clipPathUnits="userSpaceOnUse"
       id="clipPath3214"><path
         d="m 0.03125,707.3551 1008.99975,0 0,-707.000913 -1008.99975,0 0,707.000913 z"
         id="path3216" /></clipPath><clipPath
       clipPathUnits="userSpaceOnUse"
       id="clipPath3220"><path
         d="m 0.03125,0.354187 1008.96895,0 0,706.645803 -1008.96895,0 0,-706.645803 z"
         id="path3222" /></clipPath><clipPath
       clipPathUnits="userSpaceOnUse"
       id="clipPath3232"><path
         d="m 0.03125,0.354187 1008.96895,0 0,706.645803 -1008.96895,0 0,-706.645803 z"
         id="path3234" /></clipPath><clipPath
       clipPathUnits="userSpaceOnUse"
       id="clipPath3246"><path
         d="m 0.03125,707.3551 1008.99975,0 0,-707.000913 -1008.99975,0 0,707.000913 z"
         id="path3248" /></clipPath><clipPath
       clipPathUnits="userSpaceOnUse"
       id="clipPath3252"><path
         d="m 0.03125,0.354187 1008.96895,0 0,706.645803 -1008.96895,0 0,-706.645803 z"
         id="path3254" /></clipPath><clipPath
       clipPathUnits="userSpaceOnUse"
       id="clipPath3306"><path
         d="m 0.03125,0.354187 1008.96895,0 0,706.645803 -1008.96895,0 0,-706.645803 z"
         id="path3308" /></clipPath><clipPath
       clipPathUnits="userSpaceOnUse"
       id="clipPath3326"><path
         d="m 0.03125,707.3551 1008.99975,0 0,-707.000913 -1008.99975,0 0,707.000913 z"
         id="path3328" /></clipPath><clipPath
       clipPathUnits="userSpaceOnUse"
       id="clipPath3332"><path
         d="m 0.03125,0.354187 1008.96895,0 0,706.645803 -1008.96895,0 0,-706.645803 z"
         id="path3334" /></clipPath><clipPath
       clipPathUnits="userSpaceOnUse"
       id="clipPath3346"><path
         d="m 0.03125,0.354187 1008.96895,0 0,706.645803 -1008.96895,0 0,-706.645803 z"
         id="path3348" /></clipPath><clipPath
       clipPathUnits="userSpaceOnUse"
       id="clipPath3378"><path
         d="m 0.03125,707.3551 1008.99975,0 0,-707.000913 -1008.99975,0 0,707.000913 z"
         id="path3380" /></clipPath><clipPath
       clipPathUnits="userSpaceOnUse"
       id="clipPath3384"><path
         d="m 0.03125,0.354187 1008.96895,0 0,706.645803 -1008.96895,0 0,-706.645803 z"
         id="path3386" /></clipPath></defs><sodipodi:namedview
     pagecolor="#ffffff"
     bordercolor="#666666"
     borderopacity="1"
     objecttolerance="10"
     gridtolerance="10"
     guidetolerance="10"
     inkscape:pageopacity="0"
     inkscape:pageshadow="2"
     inkscape:window-width="1600"
     inkscape:window-height="876"
     id="namedview3006"
     showgrid="false"
     inkscape:zoom="0.70289193"
     inkscape:cx="313.3286"
     inkscape:cy="461.05547"
     inkscape:window-x="0"
     inkscape:window-y="174"
     inkscape:window-maximized="1"
     inkscape:current-layer="g3012" /><g
     id="g3012"
     inkscape:groupmode="layer"
     inkscape:label="AnalogNeuron"
     transform="matrix(1.25,0,0,-1.25,0,884.27087)"><g
       id="g3014" /><g
       id="g3016"><g
         id="g3018"
         clip-path="url(#clipPath3020)"><g
           id="g3024"
           clip-path="url(#clipPath3026)"><g
             id="g3030"
             transform="matrix(8.674123,0,0,8.6568,79.55561,707.3542)"><path
               d="M 0,0 0,-59.917"
               style="fill:none;stroke:#201f1f;stroke-opacity:1;stroke-width:0.5;stroke-linecap:butt;stroke-linejoin:miter;stroke-miterlimit:4;stroke-dasharray:none"
               id="path3032" /></g></g></g></g><g
       id="g3034"><g
         id="g3036"
         clip-path="url(#clipPath3038)"><path
           d="m 89.02775,415.8979 -14.67661,0 0,15.8852 14.67661,0 0,-15.8852 z"
           style="fill:#ffffff;fill-opacity:1;fill-rule:nonzero;stroke:none"
           id="path3042" /><g
           id="g3044"
           transform="matrix(8.674123,0,0,8.6568,655.6605,423.844)"><path
             d="M 0,0 -71.315,0"
             style="fill:none;stroke:#292929;stroke-opacity:1;stroke-width:0.5;stroke-linecap:butt;stroke-linejoin:miter;stroke-miterlimit:4;stroke-dasharray:none"
             id="path3046" /></g><g
           id="g3048"
           transform="matrix(8.674123,0,0,8.6568,357.1319,394.6273)"><path
             d="M 0,0 4.5,0"
             style="fill:none;stroke:#292929;stroke-opacity:1;stroke-width:0.5;stroke-linecap:butt;stroke-linejoin:miter;stroke-miterlimit:4;stroke-dasharray:none"
             id="path3050" /></g><g
           id="g3052"
           transform="matrix(8.674123,0,0,8.6568,357.1319,384.8884)"><path
             d="M 0,0 4.5,0"
             style="fill:none;stroke:#292929;stroke-opacity:1;stroke-width:0.5;stroke-linecap:butt;stroke-linejoin:miter;stroke-miterlimit:4;stroke-dasharray:none"
             id="path3054" /></g><g
           id="g3056"
           transform="matrix(8.674123,0,0,8.6568,376.6487,384.8884)"><path
             d="M 0,0 0,-2.25"
             style="fill:none;stroke:#292929;stroke-opacity:1;stroke-width:0.5;stroke-linecap:butt;stroke-linejoin:miter;stroke-miterlimit:4;stroke-dasharray:none"
             id="path3058" /></g><g
           id="g3060"
           transform="matrix(8.674123,0,0,8.6568,376.6487,414.1051)"><path
             d="M 0,0 0,-2.25"
             style="fill:none;stroke:#292929;stroke-opacity:1;stroke-width:0.5;stroke-linecap:butt;stroke-linejoin:miter;stroke-miterlimit:4;stroke-dasharray:none"
             id="path3062" /></g><g
           id="g3064"
           transform="matrix(8.674123,0,0,8.6568,376.6487,423.844)"><path
             d="M 0,0 0,-1.125"
             style="fill:none;stroke:#292929;stroke-opacity:1;stroke-width:0.5;stroke-linecap:butt;stroke-linejoin:miter;stroke-miterlimit:4;stroke-dasharray:none"
             id="path3066" /></g><g
           id="g3068"
           transform="matrix(8.674123,0,0,8.6568,376.6487,365.4106)"><path
             d="M 0,0 0,-1.125"
             style="fill:none;stroke:#292929;stroke-opacity:1;stroke-width:0.5;stroke-linecap:butt;stroke-linejoin:miter;stroke-miterlimit:4;stroke-dasharray:none"
             id="path3070" /></g><g
           id="g3072"
           transform="matrix(8.674123,0,0,8.6568,357.1319,355.6717)"><path
             d="M 0,0 4.5,0"
             style="fill:none;stroke:#292929;stroke-opacity:1;stroke-width:0.5;stroke-linecap:butt;stroke-linejoin:miter;stroke-miterlimit:4;stroke-dasharray:none"
             id="path3074" /></g><g
           id="g3076"
           transform="matrix(8.674123,0,0,8.6568,366.8903,345.9328)"><path
             d="M 0,0 2.25,0"
             style="fill:none;stroke:#292929;stroke-opacity:1;stroke-width:0.5;stroke-linecap:butt;stroke-linejoin:miter;stroke-miterlimit:4;stroke-dasharray:none"
             id="path3078" /></g><g
           id="g3080"
           transform="matrix(8.674123,0,0,8.6568,371.7434,336.1939)"><path
             d="M 0,0 1.125,0"
             style="fill:none;stroke:#292929;stroke-opacity:1;stroke-width:0.5;stroke-linecap:butt;stroke-linejoin:miter;stroke-miterlimit:4;stroke-dasharray:none"
             id="path3082" /></g><g
           id="g3084"
           transform="matrix(8.674123,0,0,8.6568,107.7803,253.9543)"><path
             d="M 0,0 0,4.5"
             style="fill:none;stroke:#292929;stroke-opacity:1;stroke-width:0.5;stroke-linecap:butt;stroke-linejoin:miter;stroke-miterlimit:4;stroke-dasharray:none"
             id="path3086" /></g><g
           id="g3088"
           transform="matrix(8.674123,0,0,8.6568,117.5387,253.9543)"><path
             d="M 0,0 0,4.5"
             style="fill:none;stroke:#292929;stroke-opacity:1;stroke-width:0.5;stroke-linecap:butt;stroke-linejoin:miter;stroke-miterlimit:4;stroke-dasharray:none"
             id="path3090" /></g><g
           id="g3092"
           transform="matrix(8.674123,0,0,8.6568,117.5387,273.4321)"><path
             d="M 0,0 2.25,0"
             style="fill:none;stroke:#292929;stroke-opacity:1;stroke-width:0.5;stroke-linecap:butt;stroke-linejoin:miter;stroke-miterlimit:4;stroke-dasharray:none"
             id="path3094" /></g><g
           id="g3096"
           transform="matrix(8.674123,0,0,8.6568,88.26356,273.4321)"><path
             d="M 0,0 2.25,0"
             style="fill:none;stroke:#292929;stroke-opacity:1;stroke-width:0.5;stroke-linecap:butt;stroke-linejoin:miter;stroke-miterlimit:4;stroke-dasharray:none"
             id="path3098" /></g><g
           id="g3100"
           transform="matrix(8.674123,0,0,8.6568,78.50517,273.4321)"><path
             d="M 0,0 1.125,0"
             style="fill:none;stroke:#292929;stroke-opacity:1;stroke-width:0.5;stroke-linecap:butt;stroke-linejoin:miter;stroke-miterlimit:4;stroke-dasharray:none"
             id="path3102" /></g><g
           id="g3104"
           transform="matrix(8.674123,0,0,8.6568,137.0555,273.4321)"><path
             d="M 0,0 1.125,0"
             style="fill:none;stroke:#292929;stroke-opacity:1;stroke-width:0.5;stroke-linecap:butt;stroke-linejoin:miter;stroke-miterlimit:4;stroke-dasharray:none"
             id="path3106" /></g><g
           id="g3108"
           transform="matrix(8.674123,0,0,8.6568,146.8139,253.9543)"><path
             d="M 0,0 0,4.5"
             style="fill:none;stroke:#292929;stroke-opacity:1;stroke-width:0.5;stroke-linecap:butt;stroke-linejoin:miter;stroke-miterlimit:4;stroke-dasharray:none"
             id="path3110" /></g><g
           id="g3112"
           transform="matrix(8.674123,0,0,8.6568,156.5766,263.6932)"><path
             d="M 0,0 0,2.25"
             style="fill:none;stroke:#292929;stroke-opacity:1;stroke-width:0.5;stroke-linecap:butt;stroke-linejoin:miter;stroke-miterlimit:4;stroke-dasharray:none"
             id="path3114" /></g><g
           id="g3116"
           transform="matrix(8.674123,0,0,8.6568,166.335,268.5375)"><path
             d="M 0,0 0,1.125"
             style="fill:none;stroke:#292929;stroke-opacity:1;stroke-width:0.5;stroke-linecap:butt;stroke-linejoin:miter;stroke-miterlimit:4;stroke-dasharray:none"
             id="path3118" /></g><path
           d="m 655.6605,458.0998 0,-156.16 148.4403,78.0843 -148.4403,78.0757 z"
           style="fill:#96989b;fill-opacity:1;fill-rule:nonzero;stroke:none"
           id="path3120" /><g
           id="g3122"
           transform="matrix(8.674123,0,0,8.6568,655.6605,458.0998)"><path
             d="M 0,0 0,-18.039 17.113,-9.019 0,0 z"
             style="fill:none;stroke:#373535;stroke-opacity:1;stroke-width:0.5;stroke-linecap:butt;stroke-linejoin:miter;stroke-miterlimit:4;stroke-dasharray:none"
             id="path3124" /></g><g
           id="g3126"
           transform="matrix(8.674123,0,0,8.6568,0.03125,0.354187)"><text
             transform="matrix(1,0,0,-1,76.0234,46.6685)"
             id="text3128"><tspan
               style="fill:#373535;fill-opacity:1;fill-rule:nonzero;stroke:none;font-family:HelveticaRegular;font-variant:normal;font-weight:normal;font-size:7;writing-mode:lr;-inkscape-font-specification:HelveticaRegular"
               x="0"
               y="0"
               id="tspan3130">+</tspan></text>
</g><g
           id="g3132"
           transform="matrix(8.674123,0,0,8.6568,0.03125,0.354187)"><text
             transform="matrix(1,0,0,-1,76.2194,36.2105)"
             id="text3134"><tspan
               style="fill:#373535;fill-opacity:1;fill-rule:nonzero;stroke:none;font-family:HelveticaRegular;font-variant:normal;font-weight:normal;font-size:7;writing-mode:lr;-inkscape-font-specification:HelveticaRegular"
               x="0"
               y="0"
               id="tspan3136">-</tspan></text>
</g><g
           id="g3138"
           transform="matrix(8.674123,0,0,8.6568,656.5071,268.5375)"><path
             d="m 0,0 -5.401,0 0,7.107 5.242,0"
             style="fill:none;stroke:#292929;stroke-opacity:1;stroke-width:0.5;stroke-linecap:butt;stroke-linejoin:miter;stroke-miterlimit:4;stroke-dasharray:none"
             id="path3140" /></g><g
           id="g3142"
           transform="matrix(8.674123,0,0,8.6568,656.5071,268.5375)"><path
             d="M 0,0 3.375,0"
             style="fill:none;stroke:#201f1f;stroke-opacity:1;stroke-width:0.5;stroke-linecap:butt;stroke-linejoin:miter;stroke-miterlimit:4;stroke-dasharray:none"
             id="path3144" /></g><g
           id="g3146"
           transform="matrix(8.674123,0,0,8.6568,705.299,249.0597)"><path
             d="M 0,0 -2.25,2.25 0,4.5"
             style="fill:none;stroke:#292929;stroke-opacity:1;stroke-width:0.5;stroke-linecap:butt;stroke-linejoin:miter;stroke-miterlimit:10;stroke-dasharray:none"
             id="path3148" /></g><g
           id="g3150"
           transform="matrix(8.674123,0,0,8.6568,533.469,328.5049)"><path
             d="M 0,0 0,11.013"
             style="fill:none;stroke:#292929;stroke-opacity:1;stroke-width:0.5;stroke-linecap:butt;stroke-linejoin:miter;stroke-miterlimit:4;stroke-dasharray:none"
             id="path3152" /></g><g
           id="g3154"
           transform="matrix(8.674123,0,0,8.6568,533.469,137.0875)"><path
             d="M 0,0 0,-1.125"
             style="fill:none;stroke:#292929;stroke-opacity:1;stroke-width:0.5;stroke-linecap:butt;stroke-linejoin:miter;stroke-miterlimit:4;stroke-dasharray:none"
             id="path3156" /></g><g
           id="g3158"
           transform="matrix(8.674123,0,0,8.6568,513.9522,127.3486)"><path
             d="M 0,0 4.5,0"
             style="fill:none;stroke:#292929;stroke-opacity:1;stroke-width:0.5;stroke-linecap:butt;stroke-linejoin:miter;stroke-miterlimit:4;stroke-dasharray:none"
             id="path3160" /></g><g
           id="g3162"
           transform="matrix(8.674123,0,0,8.6568,523.7106,117.6097)"><path
             d="M 0,0 2.25,0"
             style="fill:none;stroke:#292929;stroke-opacity:1;stroke-width:0.5;stroke-linecap:butt;stroke-linejoin:miter;stroke-miterlimit:4;stroke-dasharray:none"
             id="path3164" /></g><g
           id="g3166"
           transform="matrix(8.674123,0,0,8.6568,528.5638,107.8708)"><path
             d="M 0,0 1.125,0"
             style="fill:none;stroke:#292929;stroke-opacity:1;stroke-width:0.5;stroke-linecap:butt;stroke-linejoin:miter;stroke-miterlimit:4;stroke-dasharray:none"
             id="path3168" /></g><g
           id="g3170"
           transform="matrix(8.674123,0,0,8.6568,558.0593,207.5937)"><path
             d="M 0,0 11.35,0"
             style="fill:none;stroke:#292929;stroke-opacity:1;stroke-width:0.5;stroke-linecap:butt;stroke-linejoin:miter;stroke-miterlimit:4;stroke-dasharray:none"
             id="path3172" /></g><g
           id="g3174"
           transform="matrix(8.674123,0,0,8.6568,656.5071,207.5937)"><path
             d="M 0,0 3.375,0"
             style="fill:none;stroke:#201f1f;stroke-opacity:1;stroke-width:0.5;stroke-linecap:butt;stroke-linejoin:miter;stroke-miterlimit:4;stroke-dasharray:none"
             id="path3176" /></g><g
           id="g3178"
           transform="matrix(8.674123,0,0,8.6568,705.299,188.1159)"><path
             d="M 0,0 -2.25,2.25 0,4.5"
             style="fill:none;stroke:#292929;stroke-opacity:1;stroke-width:0.5;stroke-linecap:butt;stroke-linejoin:miter;stroke-miterlimit:10;stroke-dasharray:none"
             id="path3180" /></g><g
           id="g3182"
           transform="matrix(8.674123,0,0,8.6568,804.3575,380.0189)"><path
             d="M 0,0 9.31,0"
             style="fill:none;stroke:#292929;stroke-opacity:1;stroke-width:0.5;stroke-linecap:butt;stroke-linejoin:miter;stroke-miterlimit:4;stroke-dasharray:none"
             id="path3184" /></g><g
           id="g3186"
           transform="matrix(8.674123,0,0,8.6568,865.5925,399.4967)"><path
             d="M 0,0 2.25,-2.25 0,-4.5"
             style="fill:none;stroke:#292929;stroke-opacity:1;stroke-width:0.5;stroke-linecap:butt;stroke-linejoin:miter;stroke-miterlimit:10;stroke-dasharray:none"
             id="path3188" /></g><g
           id="g3190"
           transform="matrix(8.674123,0,0,8.6568,79.55561,188.669)"><path
             d="M 0,0 0,-3.375"
             style="fill:none;stroke:#201f1f;stroke-opacity:1;stroke-width:0.5;stroke-linecap:butt;stroke-linejoin:miter;stroke-miterlimit:4;stroke-dasharray:none"
             id="path3192" /></g><g
           id="g3194"
           transform="matrix(8.674123,0,0,8.6568,60.03883,139.9745)"><path
             d="M 0,0 2.25,2.25 4.5,0"
             style="fill:none;stroke:#292929;stroke-opacity:1;stroke-width:0.5;stroke-linecap:butt;stroke-linejoin:miter;stroke-miterlimit:10;stroke-dasharray:none"
             id="path3196" /></g><g
           id="g3198"
           transform="matrix(8.674123,0,0,8.6568,533.469,435.3922)"><path
             d="m 0,0 1.463,0 1.463,1.907 1.463,0.076 1.462,1.679 1.462,0 1.403,1.906 1.585,0.153 1.4,1.525 L 11.764,0 13.105,0"
             style="fill:none;stroke:#373535;stroke-opacity:1;stroke-width:0.5;stroke-linecap:butt;stroke-linejoin:miter;stroke-miterlimit:4;stroke-dasharray:none"
             id="path3200" /></g><g
           id="g3202"
           transform="matrix(8.674123,0,0,8.6568,851.1665,398.0727)"><path
             d="m 0,0 -1.634,0 0,7.04 -2.179,0 0,-7.04 -1.583,0"
             style="fill:none;stroke:#373535;stroke-opacity:1;stroke-width:0.5;stroke-linecap:butt;stroke-linejoin:miter;stroke-miterlimit:4;stroke-dasharray:none"
             id="path3204" /></g><g
           id="g3206"
           transform="matrix(8.674123,0,0,8.6568,688.5944,126.2284)"><path
             d="m 0,0 -1.633,0 0,7.04 -2.18,0 0,-7.04 -1.583,0"
             style="fill:none;stroke:#373535;stroke-opacity:1;stroke-width:0.5;stroke-linecap:butt;stroke-linejoin:miter;stroke-miterlimit:4;stroke-dasharray:none"
             id="path3208" /></g></g></g><g
       id="g3210"><g
         id="g3212"
         clip-path="url(#clipPath3214)"><g
           id="g3218"
           clip-path="url(#clipPath3220)"><g
             id="g3224"
             transform="matrix(8.674123,0,0,8.6568,63.26561,163.7219)"><path
               d="m 0,0 0,1.633 -7.04,0 0,2.18 7.04,0 0,1.583"
               style="fill:none;stroke:#373535;stroke-opacity:1;stroke-width:0.5;stroke-linecap:butt;stroke-linejoin:miter;stroke-miterlimit:4;stroke-dasharray:none"
               id="path3226" /></g></g></g></g><g
       id="g3228"><g
         id="g3230"
         clip-path="url(#clipPath3232)"><path
           d="m 96.90385,673.7753 163.18625,0 0,-232.0801 -163.18625,0 0,232.0801 z"
           style="fill:#bec0c2;fill-opacity:1;fill-rule:nonzero;stroke:none"
           id="path3236" /><g
           id="g3238"
           transform="matrix(8.674123,0,0,8.6568,177.1438,587.2203)"><path
             d="M 0,0 0,-5.528 0,-8.594"
             style="fill:none;stroke:#373535;stroke-opacity:1;stroke-width:0.5;stroke-linecap:butt;stroke-linejoin:miter;stroke-miterlimit:10;stroke-dasharray:none"
             id="path3240" /></g></g></g><g
       id="g3242"><g
         id="g3244"
         clip-path="url(#clipPath3246)"><g
           id="g3250"
           clip-path="url(#clipPath3252)"><path
             d="m 189.3752,513.5103 c 0,-6.735 -5.482,-12.2061 -12.2305,-12.2061 -6.7485,0 -12.2305,5.4711 -12.2305,12.2061 0,6.7436 5.482,12.206 12.2305,12.206 6.7485,0 12.2305,-5.4624 12.2305,-12.206"
             style="fill:#ffffff;fill-opacity:1;fill-rule:nonzero;stroke:none"
             id="path3256" /><path
             d="m 166.538,513.5103 c 0,-5.8347 4.7621,-10.5787 10.6084,-10.5787 5.8377,0 10.5998,4.744 10.5998,10.5787 0,5.8346 -4.7621,10.5872 -10.5998,10.5872 -5.8463,0 -10.6084,-4.7526 -10.6084,-10.5872 0,-5.8347 0,5.8346 0,0 m 24.461,0 c 0,-7.618 -6.2107,-13.825 -13.8526,-13.825 -7.6419,0 -13.8612,6.207 -13.8612,13.825 0,7.6266 6.2193,13.8335 13.8612,13.8335 7.6419,0 13.8526,-6.2069 13.8526,-13.8335 0,-7.618 0,7.6266 0,0"
             style="fill:#373535;fill-opacity:1;fill-rule:nonzero;stroke:none"
             id="path3258" /><g
             id="g3260"
             transform="matrix(8.674123,0,0,8.6568,121.456,495.2669)"><path
               d="M 0,0 C 0,0 2.374,-2.03 4.234,-3.621 5.434,-4.646 6.42,-5.49 6.42,-5.49 l 0,-2.698"
               style="fill:none;stroke:#373535;stroke-opacity:1;stroke-width:0.5;stroke-linecap:butt;stroke-linejoin:miter;stroke-miterlimit:10;stroke-dasharray:none"
               id="path3262" /></g><g
             id="g3264"
             transform="matrix(8.674123,0,0,8.6568,163.116,514.195)"><path
               d="m 0,0 c -0.191,-0.05 -0.382,-0.106 -0.568,-0.169 -1.465,-0.491 -2.75,-1.372 -3.733,-2.52"
               style="fill:none;stroke:#373535;stroke-opacity:1;stroke-width:0.5;stroke-linecap:butt;stroke-linejoin:miter;stroke-miterlimit:10;stroke-dasharray:1;stroke-dashoffset:0"
               id="path3266" /></g><g
             id="g3268"
             transform="matrix(8.674123,0,0,8.6568,79.55561,466.7566)"><path
               d="M 0,0 8.682,0"
               style="fill:none;stroke:#373535;stroke-opacity:1;stroke-width:0.5;stroke-linecap:butt;stroke-linejoin:miter;stroke-miterlimit:10;stroke-dasharray:none"
               id="path3270" /></g><g
             id="g3272"
             transform="matrix(8.674123,0,0,8.6568,177.1438,630.7623)"><path
               d="M 0,0 0,4.234"
               style="fill:none;stroke:#373535;stroke-opacity:1;stroke-width:0.5;stroke-linecap:butt;stroke-linejoin:miter;stroke-miterlimit:10;stroke-dasharray:none"
               id="path3274" /></g><path
             d="m 177.1438,630.7623 c 18.6667,0 33.7944,-15.1061 33.7944,-33.7269 0,-18.6294 -15.1277,-33.7269 -33.7944,-33.7269 -18.6667,0 -33.7944,15.0975 -33.7944,33.7269 0,18.6208 15.1277,33.7269 33.7944,33.7269"
             style="fill:#ffffff;fill-opacity:1;fill-rule:nonzero;stroke:none"
             id="path3276" /><g
             id="g3278"
             transform="matrix(8.674123,0,0,8.6568,177.1438,630.7623)"><path
               d="m 0,0 c 2.152,0 3.896,-1.745 3.896,-3.896 0,-2.152 -1.744,-3.896 -3.896,-3.896 -2.152,0 -3.896,1.744 -3.896,3.896 C -3.896,-1.745 -2.152,0 0,0 z"
               style="fill:none;stroke:#373535;stroke-opacity:1;stroke-width:0.5;stroke-linecap:butt;stroke-linejoin:miter;stroke-miterlimit:10;stroke-dasharray:none"
               id="path3280" /></g><g
             id="g3282"
             transform="matrix(8.674123,0,0,8.6568,177.1438,624.777)"><path
               d="M 0,0 0,-5.868"
               style="fill:none;stroke:#373535;stroke-opacity:1;stroke-width:0.5;stroke-linecap:butt;stroke-linejoin:miter;stroke-miterlimit:10;stroke-dasharray:none"
               id="path3284" /></g><path
             d="m 159.4052,588.3275 3.1748,2.952 14.5638,-15.6342 14.5552,15.6342 3.1834,-2.952 -17.7386,-19.0363 -17.7386,19.0363 z"
             style="fill:#373535;fill-opacity:1;fill-rule:nonzero;stroke:none"
             id="path3286" /><g
             id="g3288"
             transform="matrix(8.674123,0,0,8.6568,157.6271,667.4143)"><path
               d="M 0,0 4.5,0"
               style="fill:none;stroke:#201f1f;stroke-opacity:1;stroke-width:0.5;stroke-linecap:butt;stroke-linejoin:miter;stroke-miterlimit:4;stroke-dasharray:none"
               id="path3290" /></g><g
             id="g3292"
             transform="matrix(8.674123,0,0,8.6568,177.1438,667.4143)"><path
               d="M 0,0 0,-1.125"
               style="fill:none;stroke:#201f1f;stroke-opacity:1;stroke-width:0.5;stroke-linecap:butt;stroke-linejoin:miter;stroke-miterlimit:4;stroke-dasharray:none"
               id="path3294" /></g><g
             id="g3296"
             transform="matrix(8.674123,0,0,8.6568,0.03125,0.354187)"><text
               transform="matrix(0,1,1,0,10.7939,0)"
               id="text3298"><tspan
                 style="fill:#373535;fill-opacity:1;fill-rule:nonzero;stroke:none;font-family:HelveticaRegular;font-variant:normal;font-weight:normal;font-size:6;writing-mode:lr;-inkscape-font-specification:HelveticaRegular"
                 x="0 2.958 6.372 7.776 10.59"
                 y="0"
                 sodipodi:role="line"
                 id="tspan3300">Spike</tspan></text>
</g></g></g></g><g
       id="g3302"><g
         id="g3304"
         clip-path="url(#clipPath3306)"><g
           id="g3310"
           transform="matrix(8.674123,0,0,8.6568,0.03125,0.354187)"><text
             transform="matrix(0,1,1,0,6.9946,25.4824)"
             id="text3312"><tspan
               style="fill:#373535;fill-opacity:1;fill-rule:nonzero;stroke:none;font-family:HelveticaRegular;font-variant:normal;font-weight:normal;font-size:6;writing-mode:lr;-inkscape-font-specification:HelveticaRegular"
               x="0 3.672 6.3606 9.6546"
               y="0"
               sodipodi:role="line"
               id="tspan3314">Axon</tspan></text>
</g><g
           id="g3316"
           transform="matrix(8.674123,0,0,8.6568,0.03125,0.354187)"><text
             transform="matrix(0,1,1,0,6.8446,51.1984)"
             id="text3318"><tspan
               style="fill:#373535;fill-opacity:1;fill-rule:nonzero;stroke:none;font-family:HelveticaRegular;font-variant:normal;font-weight:normal;font-size:6;writing-mode:lr;-inkscape-font-specification:HelveticaRegular"
               x="0 2.91 5.736 9.066 11.958 15.372 17.748"
               y="0"
               sodipodi:role="line"
               id="tspan3320">Synapse</tspan></text>
</g></g></g><g
       id="g3322"><g
         id="g3324"
         clip-path="url(#clipPath3326)"><g
           id="g3330"
           clip-path="url(#clipPath3332)"><g
             id="g3336"
             transform="matrix(8.674123,0,0,8.6568,0.03125,0.354187)"><text
               transform="matrix(1,0,0,-1,102.7266,41.5474)"
               id="text3338"><tspan
                 style="fill:#373535;fill-opacity:1;fill-rule:nonzero;stroke:none;font-family:HelveticaRegular;font-variant:normal;font-weight:normal;font-size:6;writing-mode:lr;-inkscape-font-specification:HelveticaRegular"
                 x="0 2.958 6.372 7.776 10.59"
                 y="0"
                 sodipodi:role="line"
                 id="tspan3340">Spike</tspan></text>
</g></g></g></g><g
       id="g3342"><g
         id="g3344"
         clip-path="url(#clipPath3346)"><g
           id="g3350"
           transform="matrix(8.674123,0,0,8.6568,0.03125,0.354187)"><text
             transform="matrix(1,0,0,-1,82.3086,28.9224)"
             id="text3352"><tspan
               style="fill:#373535;fill-opacity:1;fill-rule:nonzero;stroke:none;font-family:HelveticaRegular;font-variant:normal;font-weight:normal;font-size:6;writing-mode:lr;-inkscape-font-specification:HelveticaRegular"
               x="0 2.9406 6.2706 8.1732 11.1792 13.5552 16.8852 20.1792 21.5952"
               y="0"
               sodipodi:role="line"
               id="tspan3354">Threshold</tspan></text>
</g><g
           id="g3356"
           transform="matrix(8.674123,0,0,8.6568,0.03125,0.354187)"><text
             transform="matrix(1,0,0,-1,82.3086,21.4404)"
             id="text3358"><tspan
               style="fill:#373535;fill-opacity:1;fill-rule:nonzero;stroke:none;font-family:HelveticaRegular;font-variant:normal;font-weight:normal;font-size:6;writing-mode:lr;-inkscape-font-specification:HelveticaRegular"
               x="0 3.252 6.258 8.634 11.64"
               y="0"
               sodipodi:role="line"
               id="tspan3360">Reset</tspan></text>
</g><g
           id="g3362"
           transform="matrix(8.674123,0,0,8.6568,0.03125,0.354187)"><text
             transform="matrix(1,0,0,-1,32.1906,51.0444)"
             id="text3364"><tspan
               style="fill:#373535;fill-opacity:1;fill-rule:nonzero;stroke:none;font-family:HelveticaRegular;font-variant:normal;font-weight:normal;font-size:6;writing-mode:lr;-inkscape-font-specification:HelveticaRegular"
               x="0 4.0194 7.0254 10.3554 13.7394 15.7248 17.1288 19.0788"
               y="0"
               sodipodi:role="line"
               id="tspan3366">Dendrite</tspan></text>
</g><g
           id="g3368"
           transform="matrix(8.674123,0,0,8.6568,0.03125,0.354187)"><text
             transform="matrix(1,0,0,-1,74.3706,55.6704)"
             id="text3370"><tspan
               style="fill:#373535;fill-opacity:1;fill-rule:nonzero;stroke:none;font-family:HelveticaRegular;font-variant:normal;font-weight:normal;font-size:6;writing-mode:lr;-inkscape-font-specification:HelveticaRegular"
               x="0 2.994 6.288 11.292"
               y="0"
               sodipodi:role="line"
               id="tspan3372">Soma</tspan></text>
</g></g></g><g
       id="g3374"><g
         id="g3376"
         clip-path="url(#clipPath3378)"><g
           id="g3382"
           clip-path="url(#clipPath3384)"><g
             id="g3388"
             transform="matrix(8.674123,0,0,8.6568,533.469,328.5049)"><path
               d="M 0,0 0,-8.594"
               style="fill:none;stroke:#373535;stroke-opacity:1;stroke-width:0.5;stroke-linecap:butt;stroke-linejoin:miter;stroke-miterlimit:10;stroke-dasharray:none"
               id="path3390" /></g><path
             d="m 521.2367,254.7957 c 0,-6.735 5.4821,-12.2061 12.2306,-12.2061 6.7484,0 12.2305,5.4711 12.2305,12.2061 0,6.7437 -5.4821,12.2061 -12.2305,12.2061 -6.7485,0 -12.2306,-5.4624 -12.2306,-12.2061"
             style="fill:#ffffff;fill-opacity:1;fill-rule:nonzero;stroke:none"
             id="path3392" /><path
             d="m 544.074,254.7957 c 0,5.8347 -4.7534,10.5873 -10.6085,10.5873 -5.8463,0 -10.5998,-4.7526 -10.5998,-10.5873 0,-5.8347 4.7535,-10.5786 10.5998,-10.5786 5.8551,0 10.6085,4.7439 10.6085,10.5786 0,5.8347 0,-5.8347 0,0 m -24.4611,0 c 0,7.6267 6.2107,13.8336 13.8526,13.8336 7.6419,0 13.8613,-6.2069 13.8613,-13.8336 0,-7.618 -6.2194,-13.8249 -13.8613,-13.8249 -7.6419,0 -13.8526,6.2069 -13.8526,13.8249 0,7.6267 0,-7.618 0,0"
             style="fill:#373535;fill-opacity:1;fill-rule:nonzero;stroke:none"
             id="path3394" /><g
             id="g3396"
             transform="matrix(8.674123,0,0,8.6568,589.156,236.5515)"><path
               d="m 0,0 -6.42,-5.49 0,-6"
               style="fill:none;stroke:#373535;stroke-opacity:1;stroke-width:0.5;stroke-linecap:butt;stroke-linejoin:miter;stroke-miterlimit:10;stroke-dasharray:none"
               id="path3398" /></g><g
             id="g3400"
             transform="matrix(8.674123,0,0,8.6568,547.4924,255.4805)"><path
               d="M 0,0 C 1.7,-0.439 3.193,-1.395 4.301,-2.689"
               style="fill:none;stroke:#373535;stroke-opacity:1;stroke-width:0.5;stroke-linecap:butt;stroke-linejoin:miter;stroke-miterlimit:10;stroke-dasharray:1;stroke-dashoffset:0"
               id="path3402" /></g></g></g></g></g></svg>